<svg width="25.000000000000004" height="32" viewBox="0 0 32 32" xmlns="http://www.w3.org/2000/svg">
  <path fill="#fff" id="svg_1" d="m16.642284,12.427078q0,0.489296 0.357483,0.847833t0.847832,0.357481t0.847832,-0.357481t0.357479,-0.847833q0,-2.749129 -1.939255,-4.688387t-4.688374,-1.939259t-4.688386,1.939259t-1.93926,4.688387q0,0.489296 0.357481,0.847833t0.847833,0.357481t0.847835,-0.357481t0.357481,-0.847833q0,-1.751554 1.243277,-2.984285t2.974794,-1.233787t2.974783,1.233787t1.243271,2.984285l-0.002106,0zm-4.161113,-10.846772q-2.202888,0 -4.208581,0.857323t-3.465146,2.315722t-2.315722,3.465147t-0.857324,4.208581q0,0.489296 0.357482,0.847833t0.847833,0.357481t0.847832,-0.357481t0.357481,-0.847833q0,-3.484127 2.476009,-5.960136t5.960135,-2.476008t5.96012,2.476008t2.476006,5.960136q0,1.035536 -0.338497,1.94875t-0.706528,1.402508t-1.120953,1.356117q-0.640091,0.73394 -0.979649,1.186329t-0.819363,1.252769t-0.697037,1.713589t-0.216171,1.986713q0,1.996201 -1.411991,3.408203t-3.408196,1.411999q-0.489296,0 -0.847832,0.357479t-0.357482,0.847832t0.357482,0.847836t0.847832,0.357483q2.99377,0 5.112287,-2.11853t2.118526,-5.112301q0,-0.771908 0.141308,-1.393021t0.498783,-1.205311t0.630604,-0.941685t0.857327,-1.01656q0.659073,-0.771904 0.997574,-1.214802t0.828846,-1.270695t0.706528,-1.761046t0.216179,-2.043656q0,-2.202888 -0.857323,-4.208581t-2.315723,-3.465147t-3.465149,-2.315722t-4.208562,-0.857323l0.001055,0z"/>
</svg>
