<?xml version="1.0" encoding="utf-8"?>
<!-- Generated by IcoMoon.io -->
<!DOCTYPE svg PUBLIC "-//W3C//DTD SVG 1.1//EN" "http://www.w3.org/Graphics/SVG/1.1/DTD/svg11.dtd">
<svg version="1.1" xmlns="http://www.w3.org/2000/svg" xmlns:xlink="http://www.w3.org/1999/xlink" width="32" height="32" viewBox="0 0 32 32">
<path fill="#f66862" d="M10.875 14.571l5.125-3.714 5.125 3.714-1.946 6h-6.339zM16 0q3.25 0 6.214 1.268t5.107 3.411 3.411 5.107 1.268 6.214-1.268 6.214-3.411 5.107-5.107 3.411-6.214 1.268-6.214-1.268-5.107-3.411-3.411-5.107-1.268-6.214 1.268-6.214 3.411-5.107 5.107-3.411 6.214-1.268zM27.054 24.107q2.661-3.625 2.661-8.107v-0.054l-1.821 1.589-4.286-4 1.125-5.768 2.393 0.214q-2.679-3.679-6.946-5.036l0.946 2.214-5.125 2.839-5.125-2.839 0.946-2.214q-4.268 1.357-6.946 5.036l2.411-0.214 1.107 5.768-4.286 4-1.821-1.589v0.054q0 4.482 2.661 8.107l0.536-2.357 5.821 0.714 2.482 5.321-2.071 1.232q2.089 0.696 4.286 0.696t4.286-0.696l-2.071-1.232 2.482-5.321 5.821-0.714z"></path>
</svg>
