<svg width="66" height="64" xmlns="http://www.w3.org/2000/svg">
  <path transform="rotate(90, 33.1463, 32)" id="svg_1" d="m26.28846,4.571q-1.893002,0 -3.232002,1.339t-1.339001,3.232l0,31.999998l-5.392998,-7.213997q-1.463998,-1.929001 -3.820998,-1.929001q-1.856999,0 -3.179,1.356998t-1.320999,3.214001q0,1.535999 0.928999,2.75l13.713997,18.285999q1.357002,1.820999 3.643002,1.820999l25.642998,0q0.785999,0 1.410999,-0.481998t0.804001,-1.231998l3.285999,-13.143002q0.857002,-3.429001 0.857002,-6.929001l0,-7.749996q0,-1.464001 -1,-2.536003t-2.429001,-1.070999t-2.429001,1t-1,2.429001l-1.142998,0l0,-2.179001q0,-1.714001 -1.143002,-2.910999t-2.856998,-1.195999q-1.643002,0 -2.821003,1.179001t-1.178997,2.820999l0,2.285999l-1.143002,0l0,-3.214001q0,-1.964001 -1.320999,-3.375t-3.25,-1.410999q-1.893002,0 -3.231998,1.339001t-1.339005,3.231998l0,3.429001l-1.142998,0l0,-20.357001q0,-1.964 -1.320999,-3.375t-3.25,-1.411l-0.001999,0.001zm0,-4.571q3.820999,0 6.481998,2.768t2.660999,6.589l0,7.857q0.785999,-0.070999 1.143002,-0.070999q3.535999,0 6.178997,2.464001q1.679001,-0.75 3.536003,-0.75q4.035999,0 6.570999,3.106998q0.964001,-0.25 2,-0.25q3.356998,0 5.679001,2.410999t2.320999,5.768002l0,7.75q0,4.142998 -1,8.035999l-3.285999,13.142998q-0.571003,2.286003 -2.429001,3.732002t-4.214001,1.445999l-25.642998,0q-2.143002,0 -4.089001,-0.981998t-3.232002,-2.661003l-13.713995,-18.285999q-1.821,-2.429001 -1.821,-5.5q0,-3.75 2.661,-6.445999t6.411,-2.695999q2.536,0 4.642996,1.25l0,-19.536001q0,-3.786 2.679001,-6.464t6.464001,-2.679l-0.001999,0zm4.571999,50.285999l0,-13.714001l-1.143002,0l0,13.714001l1.143002,0zm9.141998,0l0,-13.714001l-1.142998,0l0,13.714001l1.142998,0zm9.143002,0l0,-13.714001l-1.143002,0l0,13.714001l1.143002,0z" fill="#de4f4f"/>
</svg>
