<?xml version="1.0" encoding="utf-8"?>
<!-- Generated by IcoMoon.io -->
<!DOCTYPE svg PUBLIC "-//W3C//DTD SVG 1.1//EN" "http://www.w3.org/Graphics/SVG/1.1/DTD/svg11.dtd">
<svg version="1.1" xmlns="http://www.w3.org/2000/svg" xmlns:xlink="http://www.w3.org/1999/xlink" width="32" height="32" viewBox="0 0 32 32">
<path fill="#333" d="M5.982 24.214q-0.036 0-0.107-0.036-1.536-1.018-3.009-2.589t-2.491-3.214q-0.375-0.536-0.375-1.232 0-0.161 0.036-0.339t0.071-0.321 0.125-0.321 0.152-0.286 0.188-0.304 0.179-0.268 0.214-0.277 0.196-0.259q3.286-4.482 8.071-6.518-1.964-3.536-1.964-3.768 0-0.339 0.304-0.518 2.071-1.143 2.286-1.143 0.321 0 0.5 0.286l2.214 4.089q1.643-0.339 3.429-0.339 4.75 0 8.884 2.455t6.759 6.598q0.357 0.554 0.357 1.232t-0.357 1.232q-1.625 2.536-3.902 4.527t-4.973 3.134q1.964 3.536 1.964 3.768 0 0.357-0.304 0.518-2.071 1.143-2.268 1.143-0.339 0-0.518-0.286l-2.214-4.089-1.143-2.125-7.929-14.643 0.125-0.125q-1.036 0.429-1.768 0.839 0.054 0.089 2.268 4.179t4.339 8.018 2.125 3.982q0 0.125-0.161 0.161-0.232 0.054-1.286 0.054-1.018 0-1.071-0.125l-8.143-15.018q-0.696 0.5-1.464 1.214 0.429 0.768 3.821 7.027t3.393 6.33q0 0.179-0.196 0.179-0.25 0-1.473-0.393t-1.295-0.5l-1.893-3.518-4-7.375q-0.786 0.946-1.393 1.893 0.036 0.054 0.321 0.446t0.411 0.607l3.143 5.839q0 0.179-0.179 0.179zM20.804 22.393l0.875 1.625q4.875-1.982 8.036-6.875-3.214-4.946-8.196-6.946 1.196 1.143 1.839 2.652t0.643 3.152q0 1.893-0.839 3.58t-2.357 2.813zM15.143 11.429q0 0.357 0.25 0.607t0.607 0.25q1.536 0 2.625 1.089t1.089 2.625q0 0.357 0.25 0.607t0.607 0.25 0.607-0.25 0.25-0.607q0-2.25-1.589-3.839t-3.839-1.589q-0.357 0-0.607 0.25t-0.25 0.607zM21.679 10.268l-0.161-0.071 0.125 0.125z"></path>
</svg>
